<?xml version="1.0" standalone="no"?>
<!DOCTYPE svg PUBLIC "-//W3C//DTD SVG 20010904//EN"
 "http://www.w3.org/TR/2001/REC-SVG-20010904/DTD/svg10.dtd">
<svg version="1.0" xmlns="http://www.w3.org/2000/svg"
 width="512.000000pt" height="512.000000pt" viewBox="0 0 512.000000 512.000000"
 preserveAspectRatio="xMidYMid meet">
<metadata>
Created by potrace 1.16, written by Peter Selinger 2001-2019
</metadata>
<g transform="translate(0.000000,512.000000) scale(0.100000,-0.100000)"
fill="#000000" stroke="none">
<path d="M0 2560 l0 -2560 2560 0 2560 0 0 2560 0 2560 -2560 0 -2560 0 0
-2560z m1659 2272 c55 -27 88 -78 100 -152 6 -36 20 -117 30 -180 43 -253 62
-369 72 -445 6 -44 13 -87 17 -95 3 -8 13 -69 23 -135 9 -66 22 -155 28 -199
19 -128 79 -184 128 -118 11 15 24 52 27 82 4 30 11 69 16 85 5 17 16 71 24
120 8 50 22 124 30 165 9 41 23 118 32 170 9 52 19 102 22 110 5 14 30 137 52
260 9 51 17 82 42 168 19 63 133 80 192 28 49 -43 58 -77 46 -174 -6 -48 -18
-195 -26 -327 -8 -132 -19 -298 -24 -370 -5 -71 -9 -227 -10 -345 0 -118 -4
-220 -8 -226 -4 -6 -18 -15 -32 -18 -22 -7 -94 -33 -155 -56 -17 -7 -126 -40
-230 -71 -16 -5 -75 -13 -130 -18 -152 -15 -228 -59 -283 -166 -35 -68 -36
-168 -3 -239 20 -42 95 -127 142 -161 37 -27 88 -55 100 -55 8 0 26 -6 40 -14
67 -35 237 -49 429 -36 84 5 155 9 156 7 7 -7 -115 -238 -158 -300 -27 -38
-48 -72 -48 -77 0 -5 -6 -13 -13 -17 -6 -4 -26 -28 -42 -53 -34 -51 -44 -64
-65 -89 -8 -9 -28 -37 -45 -61 -16 -24 -37 -52 -45 -61 -18 -21 -22 -27 -79
-104 -24 -33 -49 -65 -55 -70 -6 -6 -16 -19 -22 -30 -10 -18 -23 -20 -125 -21
-63 0 -157 -4 -209 -8 -102 -9 -108 -7 -195 49 -45 29 -141 132 -155 165 -7
17 -16 30 -21 30 -5 0 -9 6 -9 13 0 6 -12 35 -25 62 -14 28 -25 55 -25 61 0 7
-7 24 -15 40 -8 16 -17 48 -21 71 -3 24 -10 43 -15 43 -4 0 -11 21 -15 48 -3
26 -10 52 -15 58 -4 5 -13 44 -19 85 -7 40 -16 83 -21 94 -5 11 -16 63 -24
115 -8 52 -20 122 -25 155 -10 57 -47 164 -62 175 -3 3 -10 18 -13 33 -4 15
-11 30 -16 33 -5 3 -16 20 -24 37 -21 43 -147 241 -165 257 -3 3 -19 25 -35
50 -16 25 -32 47 -35 50 -14 14 -90 132 -90 140 0 5 -6 13 -13 17 -6 4 -19 20
-27 35 -37 66 -84 143 -90 148 -4 3 -11 16 -15 30 -4 14 -13 32 -20 40 -32 41
-56 105 -50 136 8 47 56 84 107 84 36 0 46 -6 104 -65 35 -36 64 -68 64 -72 0
-3 21 -29 46 -57 25 -28 59 -66 75 -84 16 -18 29 -36 29 -40 0 -4 8 -15 18
-23 9 -9 24 -25 32 -35 44 -56 105 -130 114 -139 6 -5 33 -37 60 -70 92 -114
188 -150 210 -79 6 20 -23 124 -59 209 -34 83 -46 111 -59 135 -8 14 -17 40
-21 58 -3 17 -11 32 -16 32 -5 0 -9 4 -9 10 0 10 -37 94 -119 273 -17 37 -31
70 -31 73 0 3 -17 42 -39 87 -61 130 -71 154 -77 186 -4 17 -11 34 -15 37 -5
3 -9 28 -9 56 0 47 3 54 38 85 31 27 45 33 83 33 72 0 78 -8 231 -310 45 -91
86 -167 90 -170 3 -3 10 -18 13 -33 4 -16 14 -31 21 -34 8 -3 14 -10 14 -16 0
-12 52 -120 62 -127 3 -3 9 -17 13 -32 4 -15 13 -32 20 -38 8 -6 17 -24 20
-40 3 -16 13 -34 21 -41 8 -6 14 -16 14 -21 0 -14 80 -148 101 -169 31 -31 54
-24 69 20 7 21 9 48 5 60 -4 12 -15 165 -26 339 -25 408 -43 644 -59 760 -13
92 -13 92 13 131 18 27 39 44 69 54 54 19 56 19 97 -1z m2050 -1411 l84 -19
80 -81 c44 -44 83 -81 86 -81 4 0 24 -18 46 -40 22 -21 45 -39 52 -40 7 0 16
-6 20 -13 4 -7 31 -26 58 -42 28 -15 52 -31 55 -34 7 -9 116 -61 126 -61 22 0
94 -115 94 -149 0 -10 6 -23 13 -29 15 -16 17 -286 3 -317 -5 -11 -15 -45 -22
-75 -23 -101 -47 -185 -55 -190 -3 -3 -10 -21 -14 -40 -4 -19 -13 -45 -21 -57
-8 -12 -14 -28 -14 -35 -1 -7 -9 -31 -20 -53 -11 -22 -19 -44 -20 -48 0 -11
-36 -93 -61 -138 -10 -20 -19 -44 -19 -53 0 -9 -4 -16 -9 -16 -5 0 -14 -21
-21 -47 -6 -26 -15 -52 -20 -58 -18 -21 -30 -294 -28 -620 2 -355 -11 -580
-38 -622 -8 -12 -30 -30 -49 -39 -34 -16 -38 -16 -75 1 -22 10 -42 26 -45 36
-4 11 -10 19 -15 19 -5 0 -11 30 -14 68 -4 37 -11 88 -16 115 -5 26 -14 111
-20 190 -6 78 -15 169 -20 202 -6 33 -15 109 -20 169 -5 61 -13 112 -17 115
-5 3 -15 19 -23 35 -19 37 -41 50 -71 43 -27 -7 -63 -89 -74 -167 -4 -25 -11
-54 -15 -65 -9 -19 -24 -105 -54 -310 -8 -49 -18 -108 -24 -130 -6 -22 -14
-71 -18 -110 -3 -38 -10 -74 -14 -80 -4 -5 -13 -57 -20 -115 -7 -58 -16 -109
-20 -115 -4 -5 -10 -29 -14 -52 -7 -48 -40 -109 -66 -123 -44 -24 -128 -7
-161 33 -16 19 -19 34 -15 107 4 110 33 382 45 440 5 25 13 86 16 135 4 50 13
134 21 188 8 55 15 150 17 213 2 98 0 116 -16 131 -17 17 -20 16 -57 -25 -21
-23 -42 -52 -46 -64 -4 -12 -13 -28 -20 -36 -8 -7 -14 -20 -14 -28 0 -8 -4
-14 -9 -14 -5 0 -15 -16 -22 -35 -7 -19 -16 -35 -20 -35 -4 0 -12 -15 -20 -32
-7 -18 -15 -35 -18 -38 -8 -7 -29 -40 -47 -75 -8 -16 -26 -48 -39 -70 -13 -22
-31 -53 -39 -70 -9 -16 -32 -57 -51 -90 -19 -33 -43 -76 -53 -95 -9 -19 -23
-41 -29 -48 -7 -7 -13 -20 -13 -27 0 -7 -6 -20 -12 -27 -15 -16 -30 -44 -97
-173 -25 -49 -61 -105 -80 -123 -29 -28 -40 -32 -86 -32 -46 0 -58 4 -84 31
-17 17 -34 42 -37 55 -9 35 0 144 13 152 6 4 16 26 23 50 7 23 17 42 22 42 4
0 8 5 8 11 0 6 7 27 16 47 9 21 25 55 34 77 10 22 30 66 44 97 14 31 26 62 26
67 0 6 4 11 9 11 4 0 14 20 21 45 7 25 17 45 21 45 5 0 9 5 9 12 0 12 19 55
66 153 13 28 24 56 24 63 0 6 4 12 9 12 5 0 12 15 15 34 4 19 13 39 21 46 7 6
17 25 20 41 4 16 11 29 16 29 5 0 9 6 9 13 0 7 9 30 19 50 54 106 62 175 23
196 -32 17 -70 0 -129 -61 -412 -422 -763 -769 -788 -778 -16 -6 -40 -8 -53
-5 -28 7 -82 45 -82 58 0 4 -7 15 -15 23 -33 34 -7 137 42 167 7 4 13 14 13
20 0 7 8 20 18 29 19 19 25 26 67 83 16 22 36 48 45 57 19 21 19 22 105 135
39 51 73 93 78 93 4 0 7 6 7 13 0 8 11 24 25 37 14 13 25 27 25 32 0 4 8 17
18 27 22 25 33 39 62 80 14 19 48 65 75 102 28 37 77 106 110 153 33 48 68 96
78 108 9 11 17 27 17 35 0 7 4 13 8 13 11 0 142 262 142 284 0 9 4 16 9 16 4
0 15 36 24 80 21 105 7 153 -54 188 l-41 24 -268 -8 c-198 -5 -284 -4 -334 6
-36 7 -66 16 -66 20 0 5 -12 11 -27 14 -35 8 -110 77 -118 108 -4 16 1 31 15
47 17 21 35 26 133 37 110 12 192 29 212 45 6 4 38 13 73 20 34 7 62 16 62 20
0 4 16 10 35 13 19 4 47 13 62 21 15 8 32 15 36 15 18 0 267 119 277 132 3 3
17 9 32 13 15 4 32 13 39 21 6 8 16 14 22 14 10 0 52 19 172 76 39 19 75 34
80 34 6 0 22 6 37 14 14 8 43 19 63 26 20 7 49 18 63 26 15 8 32 14 38 14 6 0
24 7 41 15 16 8 62 19 103 25 41 6 76 13 79 15 10 11 121 3 200 -14z m858
-379 c6 -4 23 -39 38 -77 15 -39 31 -78 37 -88 32 -63 27 -388 -7 -453 -8 -16
-15 -35 -15 -41 0 -7 -12 -16 -26 -19 -21 -5 -31 -2 -45 17 -11 15 -14 29 -9
39 14 27 34 182 34 260 -1 74 -21 186 -40 225 -52 101 -51 97 -27 125 18 21
39 25 60 12z m254 -55 c9 -7 20 -23 24 -37 4 -14 11 -30 16 -36 5 -5 15 -58
22 -117 11 -87 12 -125 1 -214 -12 -109 -44 -227 -69 -252 -13 -14 -61 -19
-72 -7 -10 10 -7 67 4 74 22 14 46 165 47 287 0 95 -4 136 -21 198 -18 64 -20
82 -10 98 13 22 35 24 58 6z m-3818 -1207 c9 -11 20 -32 23 -47 13 -50 113
-204 168 -258 38 -38 100 -82 154 -110 44 -23 52 -31 52 -56 0 -38 -26 -51
-73 -37 -21 6 -37 15 -37 20 0 4 -5 8 -12 8 -6 0 -26 11 -44 25 -18 14 -35 25
-38 25 -8 0 -126 118 -126 126 0 3 -11 20 -25 38 -35 43 -37 45 -67 103 -16
28 -28 58 -28 67 0 9 -4 16 -10 16 -5 0 -12 16 -16 37 -5 29 -3 39 11 50 26
18 48 16 68 -7z m-182 -100 c9 -19 30 -69 45 -110 16 -41 32 -79 37 -85 4 -5
22 -32 39 -59 40 -61 108 -129 176 -174 38 -26 52 -41 52 -59 0 -33 -39 -50
-80 -33 -16 7 -30 16 -30 21 0 4 -9 11 -20 14 -35 11 -190 177 -190 203 0 6
-6 17 -13 24 -32 32 -97 192 -99 243 -2 64 54 75 83 15z"/>
</g>
</svg>
